<?xml version="1.0" standalone="no"?>
<!DOCTYPE svg PUBLIC "-//W3C//DTD SVG 20010904//EN"
 "http://www.w3.org/TR/2001/REC-SVG-20010904/DTD/svg10.dtd">
<svg version="1.0" xmlns="http://www.w3.org/2000/svg"
 width="793.000000pt" height="793.000000pt" viewBox="0 0 793.000000 793.000000"
 preserveAspectRatio="xMidYMid meet">
<metadata>
Created by potrace 1.14, written by Peter Selinger 2001-2017
</metadata>
<g transform="translate(0.000000,793.000000) scale(0.100000,-0.100000)"
fill="#000000" stroke="none">
<path d="M3719 7926 c-2 -2 -49 -7 -104 -10 -55 -4 -109 -9 -120 -11 -11 -3
-40 -7 -65 -10 -25 -2 -56 -7 -70 -10 -14 -3 -41 -7 -60 -10 -30 -4 -134 -24
-205 -39 -164 -34 -393 -106 -590 -183 -136 -54 -435 -194 -465 -218 -8 -7
-39 -26 -68 -41 -82 -45 -81 -44 -220 -138 -142 -95 -364 -269 -457 -357 -280
-266 -448 -462 -630 -734 -286 -429 -487 -912 -589 -1415 -23 -113 -32 -172
-42 -255 -3 -33 -8 -69 -10 -80 -26 -135 -25 -749 1 -905 2 -14 7 -47 10 -75
17 -144 67 -391 114 -555 84 -299 215 -610 383 -905 109 -190 324 -486 482
-660 124 -137 322 -328 411 -396 17 -13 32 -26 35 -30 14 -18 239 -182 335
-244 507 -331 1061 -535 1665 -614 163 -21 256 -26 520 -25 244 0 341 4 445
19 17 2 50 7 75 10 94 12 152 22 244 40 37 8 156 34 176 39 556 147 996 357
1435 685 55 41 102 78 105 81 3 3 34 30 70 60 269 227 471 453 737 826 5 5 13
19 20 30 166 266 271 470 357 689 32 83 62 159 67 170 35 87 130 439 144 537
4 24 8 45 10 48 3 4 22 133 40 265 15 113 20 212 20 445 0 303 -12 468 -50
685 -53 301 -125 551 -238 830 -271 666 -737 1265 -1317 1692 -87 64 -325 223
-333 223 -2 0 -51 27 -109 59 -236 131 -491 239 -748 316 -85 25 -168 50 -185
55 -16 5 -45 12 -64 15 -19 3 -37 8 -41 10 -4 2 -22 7 -41 10 -19 3 -70 12
-114 20 -44 8 -96 17 -115 20 -19 3 -46 7 -60 10 -14 2 -56 7 -95 11 -38 3
-81 8 -95 11 -32 5 -595 14 -601 9z"/>
</g>
</svg>
