<svg id="OBJECTS" xmlns="http://www.w3.org/2000/svg" viewBox="0 0 417.18 385.15"><defs><clipPath id="clippath"><path d="M337.84 29.22c-20.37-2.9-42.37.75-45.08 5.26 1.41 4.93 16.41 37.02 39.09 40.49 22.74 3 45.09-23.77 47.82-28.11-1.35-5.09-21.45-14.73-41.82-17.63Z" style="fill:none"/></clipPath><style>.cls-1{stroke:#59301a}.cls-1,.cls-2,.cls-3,.cls-7,.cls-8,.cls-9{fill:none;stroke-miterlimit:10}.cls-10{fill:#a6b14d}.cls-12{fill:#fff}.cls-13{fill:#9f6136}.cls-14{fill:#619a3d}.cls-17{fill:#d9d9d9;opacity:.49}.cls-18{fill:#a4b19c}.cls-2{stroke-dasharray:0 0 3 2}.cls-2,.cls-7{stroke:#3e5228}.cls-19{fill:#e9b24c}.cls-3{stroke:#cd8565}.cls-21{fill:#50172a}.cls-23{fill:#ffbb9b}.cls-24{fill:#63732f}.cls-25{fill:#6c323d}.cls-26{fill:#d8a452}.cls-27{fill:#dc8c7a}.cls-28{fill:#c99a42}.cls-30{fill:#95c3c2}.cls-31{fill:#6fb19f}.cls-33{fill:#7a8e2f}.cls-8{stroke:#7b9789}.cls-34{fill:#522c31}.cls-35{fill:#fec75d}.cls-36{fill:#54272a}.cls-9{stroke:#868f3e}</style></defs><ellipse class="cls-17" cx="205.61" cy="358.7" rx="72.87" ry="26.45"/><path class="cls-13" d="M264.11 351.83c-2.37-1.41-6.55-4.46-8.67-6.6-5.15-5.17-10.51-9.87-12.26-11.38l1.17-25.61-24.83 1.15s.41 14.54.92 27.79c.31.03-1.48 11.21-.58 16.16.63 3.45 3.1 3.93 8.19 6.59 3.18 1.67 7.61 5.42 12.57 7.49 5.27 2.2 18.51 1.47 23.67-1.1 10.84-5.41 6.54-10.52-.17-14.49Z"/><path class="cls-1" d="M236.58 342.64s5.36-3.02 11.33-2.86m-7.04 7.97s5.36-3.02 11.33-2.86m-29.24 9.05s7.01 1.17 11.69 6.43 11.11 7.02 18.7 6.43c7.6-.58 11.25-2.19 11.25-2.19"/><path class="cls-13" d="M147.11 351.83c2.37-1.41 6.55-4.46 8.67-6.6 5.15-5.17 10.51-9.87 12.26-11.38l-1.17-25.61 24.83 1.15s-.41 14.54-.92 27.79c-.31.03 1.48 11.21.58 16.16-.63 3.45-3.1 3.93-8.19 6.59-3.18 1.67-7.61 5.42-12.57 7.49-5.27 2.2-18.51 1.47-23.67-1.1-10.84-5.41-6.54-10.52.17-14.49Z"/><path class="cls-1" d="M174.64 342.64s-5.36-3.02-11.33-2.86m7.04 7.97s-5.36-3.02-11.33-2.86m29.24 9.05s-7.01 1.17-11.69 6.43-11.11 7.02-18.7 6.43c-7.6-.58-11.25-2.19-11.25-2.19"/><path class="cls-24" d="M243.4 166.38c-.93-2.73-74.65-2.73-75.59 0-2.2 6.47-7.63 72.03-6.55 89.25.55 8.82.99 53.62 5.38 58.12 4.39 4.51 20.33 2.15 25.12 0s5.52-28.45 5.92-40.9c.17-5.52 6.15-71.99 6.15-71.99s.66-.52 1.78-1.41c1.12.89 1.78 1.41 1.78 1.41s5.98 66.47 6.15 71.99c.41 12.45 1.13 38.75 5.92 40.9s20.73 4.51 25.12 0c4.39-4.5 4.83-49.31 5.38-58.12 1.08-17.22-4.36-82.78-6.55-89.25Z"/><path class="cls-33" d="M164.51 185.49s19.37 2.69 20.99 7c1.61 4.3 2.69 27.99-6.46 32.83s-17.76 1.08-18.84-9.69c-1.08-10.76 4.31-30.14 4.31-30.14m82.2 0s-19.37 2.69-20.99 7c-1.61 4.3-2.69 27.99 6.46 32.83s17.76 1.08 18.84-9.69c1.08-10.76-4.31-30.14-4.31-30.14"/><path class="cls-23" d="M282.8 130.67c-.2-.62-.44-1.17-.7-1.68-.21-.79-.48-1.54-.83-2.22-3.75-7.36-6.63-15.03-10.32-21.24s-7.25-18.97-15.98-21.6c-8.73-2.62-16.78 9.42-19.09 15.35-2.3 5.93 4.87 13.64 7.59 14.95 2.73 1.32 7.74 8.87 10.95 13.06 2.06 2.7 4.43 6.32 6.61 8.99-.87 2.11-2.85 6.91-4.32 10.56-1.93 4.81-3.07 25.34-3.07 25.34l7.62 8.87s9.34-9.81 16.26-21.01c5.03-8.15 7.07-23.87 5.28-29.38Z"/><path class="cls-31" d="M245.71 176.94s-.86-42.5-1.26-50.74c-.54-11.38 1.82-39.57-1.93-52.77-3.67-12.9-27.5-9.31-36.91-9.31s-33.25-3.59-36.91 9.31c-3.75 13.2-1.39 41.39-1.93 52.77-.39 8.24-1.26 50.74-1.26 50.74s24.21 4.62 40.1 4.62 40.1-4.62 40.1-4.62"/><path class="cls-19" d="M229.58 34.45c0 .06-3.36-18.71-9.57-28.36-5.62-8.7-11.59-5.54-14.4-5.49-2.81-.04-8.78-3.2-14.4 5.49-6.21 9.65-9.57 28.42-9.57 28.36 15.95-.65 31.99-.65 47.95 0Z"/><path class="cls-14" d="M229.58 34.45s-1.52-8.4-4.4-16.91c-6.21-1.54-12.77-2.43-19.57-2.43-6.79 0-13.36.89-19.57 2.43-2.88 8.52-4.4 16.91-4.4 16.91 15.95-.65 31.99-.65 47.95 0Z"/><path class="cls-28" d="M249.7 34.28c.04 5.03-19.74 9.63-44.09 9.88-24.35-.25-44.12-4.85-44.09-9.88 0-4.97 19.49-13.57 44.09-13.76 24.6.19 44.09 8.79 44.09 13.76"/><path class="cls-35" d="M205.61 23.59c20.6 0 41.88 6.73 43.9 11.57.12-.29.19-.58.19-.89 0-4.97-19.49-13.57-44.09-13.76-24.6.19-44.09 8.79-44.09 13.76 0 .3.07.6.19.89 2.01-4.85 23.3-11.57 43.9-11.57"/><path class="cls-30" d="M205.61 61.4c-5.89 0-16.56.09-16.56 8.25s9.76 13.14 16.56 13.14 16.56-4.98 16.56-13.14-10.67-8.25-16.56-8.25"/><path class="cls-23" d="m218.42 70.5-3.24-14.08s-5.5 1.72-9.56 1.72-9.57-1.72-9.57-1.72l-3.24 14.08s5.99 8.29 12.81 8.29 12.8-8.29 12.8-8.29m-37.07-32.47c-1.08 4.11 1.95 9.36 5.98 10.14 4.04.78 3.32-5.3 1.67-8.51-1.65-3.2-6.57-5.74-7.65-1.63m45.76-2.07c-4.03.78-7.05 6.03-5.98 10.14 1.08 4.11 6 1.58 7.65-1.64 1.65-3.21 2.37-9.29-1.67-8.51Z"/><path class="cls-23" d="M188.58 25.98c-1.52 3.64-2.19 7.98-2.19 12.64 0 12.83 7.18 23.23 19.22 23.23s19.22-10.4 19.22-23.23c0-4.66-.67-9-2.19-12.64-3.76-1.34-9.24-2.47-17.03-2.47s-13.26 1.13-17.03 2.47"/><path class="cls-27" d="M205.24 37.17c.62.99.98 2.02 1.15 3.14.07.57.14 1.14-.09 1.97-.15.52-.3 1-.43 1.42s-.23.78-.28 1.08c-.01.07-.02.15-.02.21 0 .03-.04-.03-.05 0-.02.03-.01.17.06.33.27.68.93 1.53 1.51 2.6-.63.1-1.21.02-1.79-.12-.57-.16-1.13-.4-1.67-.88-.26-.24-.54-.54-.73-.99-.1-.21-.18-.52-.2-.75-.02-.19-.03-.37-.03-.56 0-.73.19-1.37.4-1.92s.47-1.02.71-1.45c.14-.14.28-.61.42-1.06.28-.93.56-1.96 1.04-3.02"/><path class="cls-12" d="M205.9 50.23c-2.91.18-4.49-1.85-5.64-.04s2.64 4.62 5.63 4.67 5.29-2.88 5.28-4.43c-.01-1.54-3.02-.34-5.27-.2"/><path class="cls-34" d="M214.36 39.22c-1.13-.28-2.28.41-2.56 1.55-.28 1.13.42 2.28 1.55 2.56s2.28-.42 2.56-1.55-.42-2.28-1.55-2.56"/><path class="cls-21" d="M212.51 37.08c.13-.02.14-.02.03-.01.05 0 .1-.01.15-.02.12-.01.23-.02.35-.02h.6c.23-.01.47-.01.7 0 .1 0 .2.02.3.03.15.02.13.01-.04 0 .05 0 .1.02.15.02.3.05.59.12.89.12h.65c.45 0 1.09-.12 1.39-.47l-.21.12h.17c.38.01.5-.51.19-.7a.4.4 0 0 1-.15-.11l.12.21c-.07-.52-.65-.97-1.09-1.19-.27-.13-.55-.3-.84-.38-.3-.09-.63-.11-.94-.14q-.705-.075-1.41 0c-.65.08-1.26.34-1.81.69-.43.27-.61.79-.41 1.26.21.49.69.67 1.19.58Z"/><path class="cls-34" d="M196.85 39.22c1.13-.28 2.28.41 2.56 1.55.28 1.13-.42 2.28-1.55 2.56s-2.28-.42-2.56-1.55.42-2.28 1.55-2.56"/><path class="cls-21" d="M199.49 35.24c-.56-.35-1.16-.62-1.81-.69q-.705-.075-1.41 0c-.31.03-.64.05-.94.14-.28.08-.57.25-.84.38-.44.22-1.02.68-1.09 1.19l.12-.21s-.1.08-.15.11c-.31.19-.19.71.19.7h.17l-.21-.12c.3.35.9.46 1.34.47.55.01 1.06-.03 1.59-.12.05 0 .1-.02.15-.02-.17.02-.18.02-.04 0 .1 0 .2-.02.3-.03.22-.01.43-.02.65 0 .22.01.43 0 .65.01.1 0 .2 0 .3.01.07 0 .13.01.2.02-.11-.01-.1 0 .03.01.5.09.98-.09 1.19-.58.2-.47.02-.99-.41-1.26Z"/><path class="cls-3" d="M196.39 59.15s1.99 2.57 9.22 2.57 9.22-2.57 9.22-2.57"/><path class="cls-21" d="M185.35 26.45c-.33 2.21-.52 5.62-.55 7.95-.06 4.6 1.36 7.55 2.27 7.25s1.66-5.74 2.12-6.65c.45-.91 3.45-3 4.72-3.56 2.36-1.04 6.33.4 10.9-.84s7.8-3.42 7.8-3.42 1.64 1.85 3.99 3.51c2.34 1.65 4.62 3.4 5.37 5.37.75 1.96 1.02 6.09 2.08 5.94s.81-1.58 2-6.24c.37-1.45.57-5.87.13-9.16-3.52-1.87-9.86-3.1-20.55-3.1s-16.69 1.11-20.26 2.94Z"/><path class="cls-21" d="M224.47 38.62s-1.15 8.22-2.96 8.82-1.81 3.93-5.74 6.95c-3.25 2.5-8.69 2.87-10.16 4.08-1.47-1.2-6.91-1.58-10.16-4.08-3.93-3.02-3.93-6.34-5.74-6.95-1.81-.6-2.96-8.82-2.96-8.82s-.36 4.59.24 6.1 0 2.11.6 4.83.6 1.81 1.51 4.53.91 3.63 3.93 5.74 3.32 1.81 6.04 3.93c2.34 1.82 5.13 2.97 6.53 2.97s4.19-1.15 6.53-2.97c2.72-2.11 3.02-1.81 6.04-3.93 3.02-2.11 3.02-3.02 3.93-5.74s.91-1.81 1.51-4.53 0-3.32.6-4.83.24-6.1.24-6.1Z"/><path class="cls-23" d="M112.33 97.63s-1.41-1.51-1.31-3.32c.11-1.8 1.79-1.92 1.79-1.92s-1.2-1.34-.71-2.99c.49-1.66 1.79-1.98 1.79-1.98s-.76-2.03.11-3.17 3.62-1.64 6.82-2.51c3.97-1.08 4.33 2.1 4.33 2.1s4.06 2.35 6.4 3.99 5.01 7.03 5.47 10.85-2.99 7.87-7.59 9.2c-4.61 1.33-4.73 2.9-12.07-2.57s-5.02-7.69-5.02-7.69Zm32.32 34.61s.81-9.23 1.91-15.5c1.1-6.28 4.37-13.29 4.37-13.29l21.25 5.28s.71 9.66-1.03 20.54c-.89 5.58-2.43 11.49-5.05 16.57-.98 1.9-2.38 3.79-4.1 5.66 0 0-8.28-1.92-14.19-5.82-4.21-2.79-3.16-13.43-3.16-13.43Z"/><path class="cls-23" d="M159.03 133.6c-2.2-3.34-6.54-9.44-9.93-13.99-5.7-7.65-13.83-17.64-13.83-17.64l-13.07 4.83s3 14.45 8.47 27.84c2.17 5.31 4.73 10.46 7.64 14.48 0 0 10.54 11.94 17.7 7.99 11.78-6.49 6.94-17.55 3.02-23.5Z"/><path style="fill:#c79a4a" d="M119.66 45.57h5.45v245.41h-5.45z"/><path d="M125.89 305.98c0 1.78-1.57 3.22-3.5 3.22s-3.5-1.44-3.5-3.22v-32.74c0-1.77 1.57-3.21 3.5-3.21s3.5 1.44 3.5 3.21z" style="fill:#a47031"/><path class="cls-36" d="M120.28 27.8h4.21c.79 0 1.43.64 1.43 1.43v25.09c0 .79-.64 1.43-1.43 1.43h-4.21c-.79 0-1.43-.64-1.43-1.43V29.23c0-.79.64-1.43 1.43-1.43"/><path class="cls-36" d="M155.31 30.91H89.47c-3.54 0-6.42-2.88-6.42-6.42V13.73c0-.92.74-1.66 1.66-1.66s1.66.74 1.66 1.66v10.76c0 1.7 1.39 3.09 3.09 3.09h65.84c1.71 0 3.09-1.39 3.09-3.09V13.73c0-.92.74-1.66 1.66-1.66s1.66.74 1.66 1.66v10.76c0 3.54-2.88 6.42-6.42 6.42Z"/><path class="cls-36" d="M91.29 12.07h.84c.49 0 .89.4.89.89v14.55c0 .49-.4.89-.89.89h-.84c-.49 0-.89-.4-.89-.89V12.96c0-.49.4-.89.89-.89m6.13 0h.84c.49 0 .89.4.89.89v14.55c0 .49-.4.89-.89.89h-.84c-.49 0-.89-.4-.89-.89V12.96c0-.49.4-.89.89-.89m6.14 0h.84c.49 0 .89.4.89.89v14.55c0 .49-.4.89-.89.89h-.84c-.49 0-.89-.4-.89-.89V12.96c0-.49.4-.89.89-.89m6.13 0h.84c.49 0 .89.4.89.89v14.55c0 .49-.4.89-.89.89h-.84c-.49 0-.89-.4-.89-.89V12.96c0-.49.4-.89.89-.89m6.14 0h.84c.49 0 .89.4.89.89v14.55c0 .49-.4.89-.89.89h-.84c-.49 0-.89-.4-.89-.89V12.96c0-.49.4-.89.89-.89m6.13 0h.84c.49 0 .89.4.89.89v14.55c0 .49-.4.89-.89.89h-.84c-.49 0-.89-.4-.89-.89V12.96c0-.49.4-.89.89-.89m6.14 0h.84c.49 0 .89.4.89.89v14.55c0 .49-.4.89-.89.89h-.84c-.49 0-.89-.4-.89-.89V12.96c0-.49.4-.89.89-.89m6.13 0h.84c.49 0 .89.4.89.89v14.55c0 .49-.4.89-.89.89h-.84c-.49 0-.89-.4-.89-.89V12.96c0-.49.4-.89.89-.89m6.14 0h.84c.49 0 .89.4.89.89v14.55c0 .49-.4.89-.89.89h-.84c-.49 0-.89-.4-.89-.89V12.96c0-.49.4-.89.89-.89m6.13 0h.84c.49 0 .89.4.89.89v14.55c0 .49-.4.89-.89.89h-.84c-.49 0-.89-.4-.89-.89V12.96c0-.49.4-.89.89-.89m6.14 0h.84c.49 0 .89.4.89.89v14.55c0 .49-.4.89-.89.89h-.84c-.49 0-.89-.4-.89-.89V12.96c0-.49.4-.89.89-.89"/><path class="cls-23" d="M115.83 101.9s2.55-1.47 4.59.31c2.04 1.77 3.95 3.47 4.66 1.21.7-2.26-.14-2.49-.14-2.49s1.73.66 1.5-1.92-1.12-3.97-1.12-3.97 2.66-.66 2.12-2.51-1.51-3.78-1.51-3.78 2.43-.35 1.62-3.12c-.81-2.78-1.67-4.84-6.92-4.05-2.98.45-5.47 2.24-5.82 3.67s1.01 16.66 1.01 16.66Z"/><path class="cls-3" d="M114.15 87.34s4.97-1.96 6.11-.97m-6.97 6s5.66-1.68 8.57 0c2.91 1.67 4.07 4.17 4.07 4.17s1.55 2.98-.99 4.4"/><path class="cls-3" d="m116.84 103.33 2.02-1.32s.35.56 1.45 1.62 3.83 1.52 4.77-.21-1.13-3.59-3.73-5.66c-2.61-2.07-8.68-.14-8.68-.14m11.56-8.07s1.48 1.55 1.7 2.69"/><path class="cls-23" d="M128.86 102.3c-.15-.21-3.11-4.39-3.07-8.09.04-3.32.82-5.98.82-5.98s-4.09 2.9-6.02.46.59-3.03 2.13-4.43c1.33-1.21 4.31-4.18 7.3-.41 2.99 3.76 7.64 10.47 5.93 14.48s-5.28 6.64-7.09 3.98Z"/><path class="cls-3" d="M133.61 101.88c-1.66 1.65-3.58 2.15-4.75.43-.15-.21-3.11-4.39-3.07-8.09.04-3.32.82-5.98.82-5.98s-4.09 2.9-6.02.46.59-3.03 2.13-4.43c.42-.38 1.99-1.46 2.68-1.92m21.4 33.97s6.5 5.89 10.27 12.23c3.78 6.34 4.08 9.21 4.08 9.21"/><path class="cls-31" d="M177.39 65.63c-5.31-.43-12.78 2.29-20.24 11.12-6.18 7.31-10.75 19.47-10.99 26.65-.08 2.47 22.98 9.73 25.25 10.02s8.76-18.35 10.28-25.35c2.11-9.69 5.94-21.62-4.31-22.45Z"/><path class="cls-30" d="M146.11 100.64s5.24 3.29 11.54 5.6c6.3 2.3 15.04 3.6 15.04 3.6s3.72-.37 2.93 3.41-4.13 6.26-7.94 5.7-11.4-1.91-16.8-5.69c-5.4-3.77-8.59-6.99-4.78-12.61Z"/><path class="cls-31" d="M230.41 65.59c5.17-1.26 12.98.24 21.74 7.78 7.25 6.24 13.69 17.52 15.06 24.58.47 2.42-21.15 13.24-23.35 13.89s-11.55-16.73-14.16-23.41c-3.61-9.23-9.28-20.41.71-22.85Z"/><path class="cls-30" d="M266.82 95.22s-4.65 4.08-10.51 7.35-14.29 5.93-14.29 5.93-3.73.22-2.36 3.83 5.07 5.53 8.74 4.37 10.95-3.69 15.69-8.27c4.73-4.58 7.37-8.26 2.73-13.21"/><path class="cls-24" d="M245.08 123.11c-.45-8.16-.45-10.88-2.72-15.86s-5.44-4.98-5.44-4.98 1.36-11.78.45-21.3-3.17-16.31-3.17-16.31-2.72-2.27-6.8-1.36c0 0 .45 10.88-.45 19.94-.91 9.06-3.17 18.58-3.17 18.58s-6.85.91-18.18.91-18.18-.91-18.18-.91-2.27-9.52-3.17-18.58c-.91-9.06-.45-19.94-.45-19.94-4.08-.91-6.8 1.36-6.8 1.36s-2.27 6.8-3.17 16.31.45 21.3.45 21.3-3.17 0-5.44 4.98-2.27 7.7-2.72 15.86-5.89 50.3-1.13 54.73c4.34 4.04 27.91 5.52 40.6 5.52s36.26-1.48 40.6-5.52c4.76-4.44-.67-46.58-1.13-54.73Z"/><path class="cls-33" d="m226.42 119.53-20.81-.5-20.81.5s-2.48 14.37 2.97 23.29 12.87 8.84 17.84 8.84 12.39.08 17.84-8.84 2.97-23.29 2.97-23.29"/><path class="cls-7" d="M165.01 177.85c4.34 4.04 27.91 5.52 40.6 5.52s36.26-1.48 40.6-5.52"/><path class="cls-23" d="M260.38 173.3c-2.8-4.75-7.05-7.15-12.18-7.45-3.01-.18-5.59 1.76-5.73 4-2.5 1.44-3.34.38-5.08 2.36-1.74 1.99-3 3.72-3.43 6.21a2.98 2.98 0 0 0 1.67 3.35s-.49 1.8.13 3.32 2.49 1.26 2.49 1.26-1.08 2.13-.18 3.86 2.07 1.01 2.07 1.01-.1 2.71 1.74 2.81c1.84.09 3.25-1.01 6.49-3.4 3.18-2.34 6.2-2.81 8.66-4.46 5.64-3.79 6.15-8.11 3.35-12.86Z"/><path class="cls-3" d="M246.06 187.7s-2.14-.42-5.89 3.43m5.32-21.88s-4.27.36-6.92 2.21m2.96 4.57s-4.56 2.66-5.91 5.75m8.48-.46s-3.98 1.79-6.37 5.38"/><ellipse class="cls-17" cx="64.25" cy="351.17" rx="64.25" ry="23.04"/><path class="cls-23" d="M104.01 113.44s1.77 13.68 1.93 22.86c.16 9.19.64 32.27-3.37 36.33s-16.22-9.4-16.22-9.4 2.41-22.01 3.37-30.98c.96-8.98 3.69-18.8 3.69-18.8h10.6Z"/><path class="cls-23" d="M100.14 167.35s1.7-3.29 3.29-2.51.77 4.05.2 5.48c-.58 1.43-3.02 2.2-3.02 2.2z"/><path class="cls-3" d="M100.87 166.21c.64-.86 1.62-1.83 2.57-1.37 1.59.78.77 4.05.2 5.48-.28.7-1 1.24-1.67 1.61"/><path class="cls-24" d="M65.87 172.23c-6.03-.28-28.82-.81-28.82-.81s-4.78 8.79-4.62 23.49c.07 5.77 2.42 16.49 3.27 22.49 1.11 7.76.67 20.1.38 25.9-1.93 3-3.64 10.84-5.38 15.89-2.35 6.86-2.84 15.39-3.61 19.92-.78 4.53-5.45 28.85-5.45 28.85s3.04 3.35 8.51 5.44c5.46 2.09 8.34-.06 8.34-.06s10.46-21.67 13.14-27.72c4.35-9.83 11.73-23.24 13.43-30.68.02 0 .04-.02.06-.02 0 0 3.72-17.16 7.02-37.82 2.8-17.52 5.38-44.03 5.38-44.03l-11.66-.83Z"/><path class="cls-13" d="m34.75 328.31 4.49-16.84s-3.82-.09-9.7-1.7c-3.53-.96-7.75-3.57-7.75-3.57s-8.86 26.16-9.49 31.47c-.31 2.67 1.38 3.59 4.49 6.68 1.94 1.94 4.33 5.69 7.48 8.32 3.35 2.8 13.15 5.26 17.49 4.54 9.1-1.51 7.12-6.23 3.12-10.66-1.41-1.57-3.77-4.75-4.84-6.79-3.16-6.03-5.27-11.46-5.27-11.46Z"/><path class="cls-1" d="M26.87 333.62s4.58-1 8.89.46m-6.91 4.25s4.57-1 8.89.47m-24.55-2.67s4.27 3.46 6.87 7.08 4.47 7.82 8.55 9.93 13.8 4.16 19.02 1.73"/><path class="cls-7" d="M35.1 191.88s9.88 2.6 13.62-10.65m-14.38 14.3s.56.16 1.47.29"/><path d="M37.85 195.97c2.09.03 4.77-.36 7.1-2.01 3.65-2.59 5.89-6.32 6.76-9.63" style="fill:none;stroke-miterlimit:10;stroke:#3e5228;stroke-dasharray:0 0 3.08 2.05"/><path class="cls-7" d="M51.95 183.32c.09-.51.16-1.01.18-1.49"/><path class="cls-10" d="M27.55 303.32s4.95 1.6 8.24 2.23c3.3.64 7.58-.32 6.59 2.87-.65 2.11-.19 4.3-1.32 5.6-.58.66-2.37 1.01-3.29 1.17-2.72.48-7.91-.48-11.87-1.91-3.96-1.44-7.17-2.87-7.17-5.74s1.48-2.63 1.98-4.31 2.31-2.23 6.84.08Z"/><path class="cls-9" d="M21.22 304.34s3.61 2.41 6.67 4.05c3.06 1.65 9.17 2.35 9.17 2.35m-8.93 0s4.2 1.22 7.52 1.41c4 .24 5.64-.47 5.64-.47"/><path class="cls-24" d="M65.72 173.44c6.04.14 32.87-3.51 32.87-3.51s5.2 34.99 3.83 48.32c-1.08 10.52-.24 30.51-.41 34.35-.17 3.85-1.56 17.67-1.78 20.69-1.2 16.97-4.34 40.59-4.34 40.59s-3.27 1.01-8.65 1.26c-5.04.23-8.48-1.12-8.48-1.12s-4.75-27.79-6.17-41.39c-.98-9.41 1.91-20.69 1.91-20.69l-4.88-32.68s-6.65-18.84-6.73-30.82c-.07-11.98 2.82-15.01 2.82-15.01Z"/><path class="cls-13" d="m97.4 329.74-.82-17.42s-3.66 1.08-9.75 1.36c-3.65.17-8.46-1.02-8.46-1.02s-.52 27.65.49 32.9c.51 2.64 2.4 2.99 6.29 4.99 2.44 1.26 5.78 3.15 9.57 4.7 4.03 1.64 14.11.97 18.02-1.04 8.21-4.23 4.96-7.18-.19-10.17-1.82-1.06-5.03-3.37-6.67-4.98-4.83-4.78-8.48-9.3-8.48-9.3Z"/><path class="cls-1" d="M91.5 337.21s4.05-2.36 8.61-2.28m-5.3 6.16s4.05-2.36 8.6-2.29m-24.17 5s5.11 1.99 8.68 4.64 6.55 5.14 11.08 5.9c4.52.76 14.46.67 18.7-3.25"/><path class="cls-10" d="M82.93 307.87s5.04.21 8.29-.07c3.25-.27 7.01-2.35 6.91.99-.06 2.21.94 4.2.22 5.75-.37.8-1.96 1.61-2.77 2.02-2.42 1.19-7.52 1.67-11.59 1.35s-7.45-.84-8.2-3.6.7-2.93.73-4.68 1.58-2.77 6.42-1.76Z"/><path class="cls-9" d="M77.28 310.55s4 1.35 7.29 2.11c3.28.76 9.18-.2 9.18-.2m-8.35 2.4s4.25.04 7.4-.67c3.8-.85 5.15-1.97 5.15-1.97"/><path class="cls-7" d="M92.75 180.12s.53 7.16 8.43 10.9"/><path class="cls-2" d="M89.95 181.76s1.25 5.96 5.64 9.72c3.05 2.61 5.02 2.51 5.02 2.51"/><path class="cls-7" d="M36.09 175.77s21.48 8.62 34.81 7.35c22.25-2.12 27.7-7.02 27.7-7.02m-22.92 7.16s-1.4 29.22-4.85 42.07"/><path class="cls-7" d="M82.03 181.34s-2.77 23.62-8.11 22.35"/><path class="cls-26" d="M36.44 171.95s11.47 6.39 30.14 8.16c9.99.95 32.81-6.81 32.81-6.81s-1.47-17.07.27-27.57c.78-4.67.31-25.54.31-25.54s4.54-1.25 5.17-4.07-1.88-13.63-3.92-19.28c-2.04-5.64-5.48-10.35-11.83-11.92-2.59-.64-5.51-.91-8.69-.9-2.75.01-6.96-.25-11.64-.17-13.97.24-31.48 3.67-34.25 10.6-3.69 9.26 6.85 41.56 6.23 49.09-.63 7.52-4.01 14.45-4.24 20.06-.19 4.5-.37 8.37-.37 8.37Z"/><path class="cls-24" d="M45.64 87.07s4.51 6.31 6.07 12.58c1.57 6.27 3.45 18.49 3.13 26.64-.31 8.15-4.07 24.76-8.15 28.21-4.07 3.45-10.03 5.64-10.66 9.09s-.31 9.4-.31 9.4 22.88 11.28 40.43 7.84c17.55-3.45 24.76-7.84 24.76-7.84s-.46-31.62 0-40.75c.31-6.27-.71-15.84-1.57-22.49-1.65-12.69-8.11-24.57-8.11-24.57s-1.54-.96-3.06-1.18c-1.65-.24-3.29 0-3.29 0s3.41 6.46 4.82 12.34c1.13 4.71 1.65 11.75 1.65 11.75s-8.31 0-13.32.94c-5.02.94-14.1 1.88-14.1 1.88s-3.13-9.09-4.7-13.79-6.19-11.95-6.19-11.95-1.81.02-3.64.47c-1.48.36-3.06.85-3.76 1.41Z"/><path class="cls-21" d="M72.27 33.11s15.55-.24 20.38 12.69c3.36 8.99 2.33 13.74.95 20.15-.61 2.81-1.09 9.9-7.03 13.08s-17.39-2.75-22.8-12.66c-5.42-9.91-3.12-29.18 8.5-33.26"/><path class="cls-23" d="m79.79 74.02.35 12.75s-1.68 8.28-7.32 8.01c-5.65-.27-12.38-11.06-12.38-11.06l6.18-15.31z"/><path class="cls-23" d="M91.55 52.62c.88 4.65 2.01 21.62-8.42 26.44-13.78 6.36-22.82-.94-27.09-15.45s7.61-25.82 19.04-24.47c11.79 1.38 15.6 8.83 16.48 13.48Z"/><path class="cls-21" d="M88.81 42.5c-1.99 4.57-3.92 7.47-9.17 9.73-5.26 2.26-11.57 2.51-13.56 3.6-1.98 1.1-6.09 5.7-5.14 10.95s2.43 8.51-1.6 10.08-7.45-3.67-9.5-7.47c-2.04-3.8-4.1-11.41-.83-20.61s9-13.96 17.61-15.49c9.15-1.63 24.18 4.64 22.19 9.21"/><path class="cls-23" d="M63.3 62.52s-2.15-7.02-6.45-3.59c-2.63 2.1-.48 8.41 1.94 9.46s4.54-.14 4.54-.14l-.03-5.72Z"/><path class="cls-12" d="M73.49 69.67c1.2-1.45 2.94.73 5.2 1.17 2.11.41 4.1.05 4.48.52.78.97-1.73 5.56-6.63 3.6-4.23-1.69-4.25-3.84-3.05-5.29"/><path class="cls-27" d="M81.29 59.64c.54 1.05.86 2.09 1.15 3.07.08.24.13.48.21.69.03.11.07.2.1.27.03.03.05.03.09.08.16.21.49.58.8 1 .32.44.67.9.95 1.71.12.4.24 1.01-.02 1.69-.3.69-.72.95-1.04 1.14-.67.35-1.26.43-1.86.46-.6 0-1.17-.04-1.76-.25.43-.45.86-.79 1.24-1.16.38-.34.76-.68.93-.96.09-.12.06-.25-.06-.06-.09.17-.07.23-.13.15-.1-.17-.39-.55-.67-.96-.29-.43-.62-.88-.9-1.63-.07-.18-.13-.44-.16-.66-.02-.18-.03-.35-.02-.5.01-.31.03-.59.07-.87.17-1.11.49-2.17 1.07-3.2Z"/><path class="cls-21" d="M69.54 56.83c-.09 0-.19-.01-.28-.02v1.4c.28.02.57-.06.85-.11.27-.04.53-.1.8-.15.51-.09.9-.15 1.42-.18.24-.01.47-.02.71 0 .29.01.28.02.53.06.45.08 1.2.34 1.56-.08-.11.05-.22.09-.33.14h.06c.25-.03.49-.24.4-.52 0-.02-.01-.04-.02-.05v.25c.23-.68-.65-1.14-1.17-1.27-.53-.13-1.11-.14-1.66-.11-.58.04-1.16.13-1.74.24s-1.25.21-1.78.49c-.79.43-.09 1.63.7 1.21.08-.04.16-.09.24-.13.57-.31.27-1.11-.31-1.15Zm15.42-.26c-.08 0-.15-.02-.23-.03-.37-.04-.7.35-.7.7 0 .41.32.65.7.7.23.03.48-.04.71-.08.2-.03.4-.07.6-.1.1-.02.2-.03.3-.05.05 0 .1-.01.15-.02-.08.01-.05 0 .01 0 .21-.02.41-.04.62-.05h.57c.05 0 .09 0 .14.01.02 0 .17.02.06 0-.1-.01.04 0 .06.01.04 0 .09.02.13.03.39.09.75.25 1.15.22.37-.02.75-.39.6-.79-.11-.29-.27-.55-.54-.71-.2-.12-.45-.22-.68-.27-.45-.1-.92-.14-1.38-.11-.48.02-.95.1-1.42.18-.46.09-1.02.17-1.43.42.23.4.47.8.7 1.2.06-.04.13-.08.19-.12.23-.15.36-.43.28-.7-.08-.28-.32-.42-.6-.45Z"/><path class="cls-34" d="M88.99 63.08a2.122 2.122 0 0 1-4.24-.08 2.122 2.122 0 0 1 4.24.08m-14.34-.27a2.12 2.12 0 0 1-2.15 2.08 2.122 2.122 0 0 1 .08-4.24c1.17.02 2.1.99 2.08 2.16Z"/><path class="cls-3" d="M66.19 78.35s2.33 1.78 6.29 2.41c3.37.54 6.53.16 6.53.16"/><path class="cls-21" d="M56.67 73.32c-1.82.42-4.17 3.01-3.98 6.86.18 3.86 2.99 5.2 2.99 5.2s-2.9 4.06-1.92 6.65 3.29 2.89 3.29 2.89-2.38 3.3-.38 6.67c1.99 3.38 4.03 4.44 6.35 3.97s3.42-4.05 2.96-7.14-2.23-4.15-2.23-4.15 1.58-2.03 1.12-5.12-3.52-3.92-3.52-3.92 2.09-2.02 1.64-5.37-4.24-7.02-6.3-6.54Zm5.11 33.42s-3.55 6.27-1.89 9.22c1.66 2.94 2.94-1.32 2.94-1.32s1.31 3.28 2.86 2.8 1.43-3.06 1.43-3.06 1.68 1.57 3.1-.63c1.41-2.2-5.5-7.98-5.5-7.98l-2.93.97Z"/><path d="M60.64 105.52s.84.2 2.22-.24c1.39-.44 2.12-1.25 2.12-1.25l.68 1.94s-.82.86-2.13 1.27-2.32-.04-2.32-.04z" style="fill:#ffe000"/><path class="cls-33" d="m94.06 117.45-26.16 2.99s-.45 17.17 5.24 21.36 15.73 1.72 19.39-3.45c5.42-7.67 1.54-20.9 1.54-20.9Z"/><path class="cls-23" d="M24.48 110.45c-1.05 1.97-5.25 10.79-6.84 15.96-1.98 6.44-3.14 14-3.27 18.5-.1 3.72 1.66 12.77 4.24 19.61 3.03 8.04 7.04 13.78 8.23 15.62 2.2 3.39 9.79-.73 10.34-3.08.29-1.23-.02-8.72-1.21-17.36-1.07-7.82-4.34-14.47-4.34-14.47s5.55-8.2 6.75-12.3c1.93-6.58 4.34-11.09 4.34-13.99s-4.91-5.87-6.89-7.25c-4.32-3.01-10.3-3.21-11.35-1.24"/><path class="cls-23" d="M49.4 195.74c-.35-1.41-2.45-2.25-4.42-3.83-1.25-1-2.69-5.36-2.69-5.36s.35-.55 1.68 1.01 3.31.85 3.62-.8-2.15-3.99-4.24-5.89c-2.08-1.9-6.66-5.03-6.66-5.03s-8.92 1.69-9.65 4.1c-.72 2.41-.61 7.89.48 11.94s1.8 5.73 5.14 8.75 4.09 3.38 5.51 3.5 1.49-1.39 1.49-1.39 1.57 1.49 3.36.74c1.78-.75.84-2.29.84-2.29s2.17.48 3.63-.73c1.46-1.2-.38-2.37-.38-2.37s2.64-.95 2.29-2.36Z"/><path class="cls-3" d="M32.41 194.3s.63 3.19 2.37 4.9c1.73 1.72 4.88 3.55 4.88 3.55m-4.26-11.23s1.15 3.56 2.59 5.9c.94 1.54 3.93 3.15 5.87 3.77m-5.08-12.35s.92 3.82 3.05 5.63c2.13 1.8 4.92 3.37 4.92 3.37"/><path class="cls-26" d="M44.05 90.79c-7.37-2.71-14.47 4.66-18.7 13.92-1.42 3.11-4.08 8.2-3.25 10.02.83 1.81 3.5 4.62 7.47 7.39 3.17 2.22 9.33 4.39 10.97 4.16 1.63-.23 8.45-13.6 10.38-18.67 1.93-5.06.51-14.1-6.86-16.82Z"/><path d="M51.15 103.75s-.24 7.48-3.38 12.78c-3.13 5.31-6.27 10.13-6.27 10.13" style="fill:none;stroke-miterlimit:10;stroke:#b17c2a"/><path class="cls-23" d="M102.16 187.91s-1.56.01-2.15-.81c-1.01-1.4.12-2.69.59-3.58-2.12.02-3.19-2.72-1.9-4.7-1.48-.79-1.99-3.19-.6-4.81 0 0 2.79-1.69 3.84-2.13 1.05-.43 2.88.15 3.12 1.41.25 1.26-.55 1.91-.55 1.91s1.89.43 2.23 2.28c.23 1.21-1.05 2.1-1.05 2.1s1.2-.7 2.1.55c1.28 1.77-.22 2.98-.36 3.31.86.1 1.55.69 1.7 2.19.1 1.09-.54 2.09-1.32 2.89s-.69.59-1.87 1.4c-1.18.82-2.71 2.81-3.91 1.76-1.21-1.05.11-3.78.11-3.78Z"/><path class="cls-3" d="M102.41 188.2s4.08-2.64 5.37-4.74m-7.28.39s4.08-2.64 5.37-4.74m-7.32-.19s4.52-1.87 6.24-3.65"/><ellipse class="cls-17" cx="353.71" cy="351.17" rx="63.47" ry="23.04"/><path class="cls-19" d="M360.04 43.35c-.01.06-.69-19-5.48-29.43-4.34-9.4-10.69-7.12-13.48-7.47-2.78-.44-8.24-4.41-15.03 3.41-7.51 8.68-13.48 26.79-13.47 26.73 15.89 1.6 31.77 3.87 47.47 6.76Z"/><path class="cls-14" d="M360.04 43.35s-.33-8.53-1.98-17.37c-5.93-2.39-12.3-4.21-19.03-5.16-6.73-.96-13.36-1-19.72-.35-4.05 8.03-6.74 16.12-6.74 16.13 15.89 1.6 31.77 3.87 47.47 6.76Z"/><path class="cls-28" d="M379.98 46.01c-.67 4.99-20.89 6.75-45.04 3.57-24.07-3.68-43-11.02-42.26-16 .7-4.92 21.21-10.68 45.59-7.4 24.33 3.65 42.41 14.91 41.71 19.83"/><path class="cls-35" d="M337.84 29.22c20.39 2.9 40.52 12.56 41.83 17.65.16-.27.27-.55.31-.85.7-4.92-17.38-16.18-41.71-19.83-24.38-3.28-44.89 2.49-45.59 7.4-.04.3-.02.6.06.91 2.68-4.52 24.7-8.18 45.09-5.27Z"/><path class="cls-23" d="M303.28 103.37s-1.77 12.95-1.94 19.75-.25 17.82-.25 17.82-2.64 6.56-4.49 15.3-1.85 23.96-1.85 23.96l10.57-1.06s7.64-11.85 9.65-22.14c2.01-10.3 3.23-22.77 3.23-22.77l1.48-30.29-16.39-.56Z"/><path class="cls-23" d="M304.79 177.77s3.99 4.73 3.92 9.9c-.08 5.17-.83 6.47-.82 10.07s.25 7.21-2 7.3-3.26-1.99-3.34-4.47-2.18-8.9-2.18-8.9-1.94 2.36-2.75 4.79c-.82 2.43-1.16 4.43.29 6.54s4.03 4.06 3.49 5.6-3.22 1.16-3.22 1.16-.29 1.11-1.65 1.25c-1.36.15-4.2-4.97-5.45-6.84-1.24-1.87-1.41-6.6-1.24-9.52.17-2.91 5.47-16.54 5.47-16.54l9.47-.35Z"/><path class="cls-3" d="M298.11 209.71s-1.97-1.61-3.49-3.26-3-9.62-3-9.62"/><path class="cls-18" d="M320.6 74.13c-9.18-2.89-15.72 7.92-17.49 15.72-1.76 7.8-1.35 18.8-1.35 18.8s6.27 2.11 10.47 5.01 8.64 3.34 8.64 3.34 9.47-39.8-.28-42.87Z"/><path class="cls-24" d="M351.58 166.94c-6.46.22-35.19-3.28-35.19-3.28s-5.1 35.74-3.49 49.69c1.27 11 .61 31.96.83 35.99s1.87 18.5 2.13 21.65c1.47 17.77 5.1 42.48 5.1 42.48s3.5 1.02 9.26 1.21c5.39.18 9.06-1.27 9.06-1.27s4.77-29.16 6.12-43.44c.95-9.86-2.27-21.65-2.27-21.65l4.85-34.3s6.84-18.84 6.78-31.39-3.18-15.69-3.18-15.69"/><path class="cls-7" d="M322.13 173.39s-.95 8.2-7.77 11.8"/><path class="cls-2" d="M324.56 174.02s-.48 5.4-3.33 9.04-6.19 4.74-6.19 4.74"/><path class="cls-13" d="m319.21 327.61.42-19.6s4.15 1.11 11 1.25c4.1.08 9.47-1.39 9.47-1.39s1.38 31.05.4 36.98c-.5 2.98-2.61 3.43-6.93 5.78-2.71 1.48-6.4 3.71-10.62 5.56-4.48 1.96-15.82 1.5-20.27-.65-9.35-4.52-5.78-7.92-.08-11.43 2.01-1.25 5.55-3.93 7.35-5.79 5.29-5.51 9.26-10.7 9.26-10.7Z"/><path class="cls-1" d="M326.06 335.84s-4.62-2.54-9.74-2.32m6.13 6.78s-4.62-2.54-9.73-2.32m27.31 4.91s-5.69 2.38-9.62 5.46-7.22 5.96-12.28 6.94-16.23 1.17-21.11-3.12"/><path class="cls-10" d="M335.16 302.28s-6.04.4-9.95.17-8.49-2.6-8.27 1.4c.14 2.65-1 5.07-.08 6.92.47.94 2.4 1.88 3.39 2.33 2.94 1.36 9.08 1.77 13.96 1.27 4.88-.51 8.92-1.23 9.73-4.57s-.94-3.5-1.02-5.59c-.09-2.1-1.98-3.28-7.76-1.92Z"/><path class="cls-9" d="M342.02 305.32s-4.77 1.74-8.69 2.76-11.03.04-11.03.04m10.11 2.63s-5.1.18-8.9-.57c-4.59-.9-6.25-2.21-6.25-2.21"/><path class="cls-24" d="M377.34 162.79c-6.17 1.61-34.87 7.13-34.87 7.13s3 35.95 7.64 49.21c3.66 10.46 7.65 31.03 8.76 34.91s5.89 17.63 6.84 20.66c5.35 17.01 14.3 40.32 14.3 40.32s3.6.24 9.18-.82c5.23-.99 8.43-3.2 8.43-3.2s-1.87-29.47-3.72-43.69c-1.27-9.82-6.98-20.62-6.98-20.62l-2.92-34.5s3.31-20.66.48-32.88-7.14-16.52-7.14-16.52"/><path d="M378.75 312.02s3.66 1.12 9.25.08c5.6-1.03 9.72-4.52 9.72-4.52s2.1 3.64.91 5.78c-1.18 2.14-4.42 3.64-9.86 4.97s-9.4.37-10.57-1.48c-1.16-1.85.54-4.83.54-4.83Z" style="fill:#8db1cc"/><path class="cls-7" d="M365.29 172.61s1.43 8.74 12.45 12.76"/><path class="cls-2" d="M361 172.75s.35 5.63 5.81 10.41c3.99 3.49 10.22 5.08 10.22 5.08"/><path class="cls-13" d="m379.69 327.96-2.48-19.45s4.27.48 11.06-.39c4.07-.52 9.17-2.77 9.17-2.77s5.95 30.51 5.85 36.52c-.05 3.02-2.08 3.78-6 6.74-2.46 1.86-5.78 4.61-9.69 7.06-4.14 2.6-15.42 3.82-20.15 2.34-9.91-3.09-6.89-6.98-1.77-11.3 1.81-1.53 4.91-4.71 6.41-6.81 4.42-6.23 7.58-11.95 7.58-11.95Z"/><path class="cls-1" d="M387.68 335.08s-4.94-1.83-9.97-.86m7.05 5.81s-4.95-1.83-9.97-.86m27.74.83s-5.27 3.19-8.71 6.82c-3.44 3.62-6.26 6.96-11.12 8.68s-15.88 3.55-21.34.03"/><path class="cls-10" d="M391.72 300.56s-5.92 1.29-9.82 1.64-8.78-1.32-7.97 2.6c.53 2.6-.24 5.16.94 6.85.6.86 2.65 1.5 3.7 1.81 3.11.91 9.24.41 14-.81 4.75-1.22 8.64-2.54 8.95-5.96.31-3.43-1.44-3.33-1.84-5.38-.39-2.06-2.44-2.95-7.96-.76Z"/><path class="cls-9" d="M398.96 302.55s-4.46 2.43-8.19 4.01-10.91 1.66-10.91 1.66m10.39 1.11s-5.01.93-8.89.75c-4.67-.21-6.5-1.26-6.5-1.26"/><path class="cls-7" d="M379.57 165.78c-3.13 3.56-24.69 10.33-38.8 9.94-22.77-.62-24.92-5.17-24.92-5.17m24.34 6.36s3.88 31.31 10.67 40.84"/><path class="cls-7" d="M333.32 175.59s5.42 24.32 10.89 22.44"/><path class="cls-18" d="M309.5 90.76c.44-3.62.24-12.53 4-15.78s8.3-4.97 12.59-6.05c3.02-.76 12.57-3.27 17.93-3.83 15.97-1.71 30.84-.09 34.97 4.9 2.83 3.43 4.14 12.94 4.78 22.22.61 8.8-4.29 25.87-4.29 36.97 0 4.04.29 9.71.67 15.31.65 9.78 1.94 15.66-.25 18.48-1.66 2.13-11.6 7.84-32.6 10.66-16.7 2.24-31.53-4.14-32.85-6.15-1.31-2 .18-6.11.27-13.93.14-11.99.09-28.01-1.09-32.29-2.44-8.88-4.75-25.24-4.12-30.5Z"/><path class="cls-23" d="m332.98 58.63 18.23-8.98 6.5 19.5s-6.38 14.33-15.44 14.6c-9.72.29-10.68-11.11-10.68-11.11l1.38-14Z"/><g style="clip-path:url(#clippath)"><path class="cls-21" d="M321.44 25.15s-6.95 4.41-6.33 14.18 4.79 10.18 8.01 7.65 12.86-15.14 12.86-15.14l-4.79-10.9z"/><path class="cls-23" d="M319.02 31.69c-3.68 6.44-2.16 10.97-1 17.78 1.12 6.61 3.13 12.64 8.19 15.48 6.71 3.76 14.39 3.14 20.37-3.74 2.67-3.07 6.1-9.11 7.55-15.53 1.78-7.87-4.91-22.84-13.16-25.23s-18.27 4.79-21.94 11.23Z"/><path class="cls-34" d="M325.56 47.1c-.45.94-1.58 1.34-2.52.89a1.89 1.89 0 0 1-.89-2.52 1.9 1.9 0 0 1 2.53-.89c.94.45 1.34 1.58.89 2.52Zm13.56-2.05a1.892 1.892 0 1 1-1.2-2.39c.99.33 1.53 1.4 1.2 2.39"/><path class="cls-27" d="M328.26 41.11c.42 1.17.68 2.34.91 3.51.22 1.17.38 2.34.5 3.51l.04.39-.51.63c-.4.5-.86 1.1-1.19 1.59-.17.25-.29.49-.36.65-.04.08-.06.15-.07.17l-.02.02s-.01-.03-.02-.04c-.01-.02-.03-.03-.04-.02-.03.06.1.31.3.55s.45.5.72.76c.55.53 1.16 1.07 1.78 1.72-.89.15-1.76.1-2.62-.11-.43-.11-.86-.26-1.3-.49-.43-.24-.9-.54-1.31-1.19-.1-.17-.18-.36-.25-.58-.03-.11-.06-.23-.07-.34l-.02-.28c-.02-.19 0-.37.02-.53q.03-.255.09-.48c.15-.6.41-1.07.68-1.48.57-.82 1.19-1.4 1.98-1.95l-.47 1.02c.09-1.17.22-2.35.41-3.52.2-1.17.44-2.35.82-3.53Z"/><path class="cls-21" d="M325.76 41.66c-.3-.2-.6-.36-.97-.44-.5-.12-1.03-.24-1.54-.23-.63 0-1.22.29-1.77.57-.44.22-.87.47-1.3.73-.53.32-.78 1.07-.42 1.62.34.52 1.06.78 1.62.42.38-.24.77-.47 1.17-.68.11-.06.23-.12.34-.17.06-.03.11-.05.17-.08.2-.1-.28.12-.03.01.1-.04.21-.08.31-.13q-.27.12-.15.06c.06-.02.11-.05.17-.06.03 0 .06-.01.09-.02.15-.06-.34.02-.16.02.19 0 .38 0 .58.01.12 0 .23.02.35.03.05 0 .26.03.04 0s.02 0 .06 0c.17.03.35.07.52.07.11 0 .24-.03.36-.05-.38.05-.21.03-.13.02.08 0 .16-.02.24-.03.39-.04.78-.25.87-.66a.95.95 0 0 0-.41-1.02Zm8.66-.03c.27-.06.54-.12.81-.17.5-.1.96-.3 1.45-.43.09-.02.18-.04.28-.07.17-.04 0 .06-.12.01h.15c.17 0 .35.03.52.04.08 0 .15.02.23.03s.06 0-.05 0c.05 0 .1.01.14.02.79.11 1.57.3 2.38.33l-1.05-1.38v.01l.5-.65c.5-.07.66-.12.48-.14-.1-.01-.2 0-.3.04-.12.04-.75.46-.32.16.16-.04.33-.09.49-.13-.36.04-.77.08-.97.43-.15.26-.11.55 0 .81.02.03.03.07.05.1.12.19.02.24-.05-.33.06.51.3.87.79 1.04s1.06-.06 1.32-.5c.35-.59.03-1.43-.65-1.6-.79-.2-1.61-.26-2.42-.33-.64-.05-1.27-.1-1.89.1-.53.17-1.13.37-1.6.67-.26.16-.52.33-.77.5-.74.5-.28 1.63.6 1.44m8.25-13.73 9.78-6.16s2.34 1.09 4.31 5.97c1.85 4.58 1.25 6.9 1.33 9.33s-.45 5.65-1.57 6.23c-1.7.88-5.19.9-6.13 3.48-.95 2.58-2.9 1.03-2.7-1.71.06-.87.28-1.98.45-3.2-.66-.82-.53-5.2-2.26-6.04-5.3-2.55-3.2-7.89-3.2-7.89Z"/><path class="cls-3" d="M332.58 67.29c2.06.27 4.88.28 7.6-.91 5.11-2.25 8.77-9.18 8.77-9.18"/><path class="cls-12" d="M337.19 53.44c-2.29-1.17-3.87 2.11-6.98 2.91l-3.11.8s2.38 4.91 6.83 4.2c4.46-.71 5.55-6.74 3.26-7.91"/><path class="cls-21" d="M347.67 26.83s-8.47 9.03-12.02 8.78-4.16-4.95-4.16-4.95-4.06 5.05-7.14 5.12-3.73-2.59-3.73-2.59-2.3 8.89-3.59 8.96-1.61-4.87-1.93-9.76c-.32-4.91 5.72-20.19 22.15-20.39s16.42 10.56 16.42 10.56l-5.99 4.26Z"/><path class="cls-23" d="M350.6 43.9c1.66-3.65 6.47-7.63 7.68-1.71.94 4.62-3.84 12.5-7.8 10.64-2.14-1-1.54-5.27.12-8.93"/></g><path class="cls-8" d="M311.51 112.58s-5.45-24.79-3.47-32.72"/><path class="cls-25" d="M382.7 176.77c.38-.28.79-.51 1.21-.72-.06.04-.09.07-.09.07l.09-.07c.18-.09.36-.17.54-.25.43-.09.92.1.92 1.45-.25.25-1.22 1.76-1.88 3.51-2.35 3.19-3.49 10.03-3.49 20.8 0 .94-.76 1.7-1.7 1.7s-1.7-.76-1.7-1.7c0-14.04 1.88-21.69 6.1-24.8Z"/><path d="M389.05 204.68h25.17s-4.81 39.87-6.79 42.7c-1.88 2.68-8.19 5.91-17.52 5.91s-14.24-3.23-16.13-5.91c-1.98-2.83-6.79-42.7-6.79-42.7z" style="fill:#a1a193"/><path d="M366.99 204.96c0 4.06 12.45 7.35 23.61 7.35s23.61-3.29 23.61-7.35-12.45-7.35-23.61-7.35-23.61 3.29-23.61 7.35" style="fill:#8f8f83"/><path d="M369.06 207.79c4-2.66 13.13-4.52 21.54-4.52s17.54 1.87 21.54 4.52c-4 2.66-13.13 4.53-21.54 4.53s-17.54-1.87-21.54-4.53" style="fill:#ffedb3"/><path class="cls-23" d="M373.76 110.42c2.54 4.96 15.76 22.73 15.76 22.73s-1.68 13.6-1.37 21.6 2.93 17.87 2.93 17.87l11.24 3.62s5.64-12.04 7.96-23.39c1.78-8.69 1.81-19.71.94-23.49-.86-3.78-5.82-15-10.8-24.2-5.6-10.36-11.8-16.11-13.79-16.34-3.76-.45-15.42 16.66-12.88 21.61Z"/><path class="cls-23" d="M404.52 170.95c-.66-3.14-4.45-4.74-7.74-4.84-3.04-.09-7.23 2.54-8.37 3.59-.62.57-2.76 3.94-4.24 5.6-1.23 1.38-1.41-.17-2.59 2.35-.71 1.52-1.42 3.08-1.35 4.44.04.9 1.33 2.39 1.33 2.39s-.06 3.06 1.91 4.27c1.97 1.22 2.58.52 2.58.52s.33 1.3 1.61 2.03 3.17.42 3.17.42 1.22.88 2.69.88c.98 0 2.14-.74 2.84-1.12 1.63-.87 7.41-6.09 8.27-7.95 1.74-3.76.69-8.81-.1-12.58Z"/><path class="cls-3" d="M391.53 181.67c.16-.99-.1-1.98-.94-2.71-1.25-1.01-2.54-.05-3.28 1.21-1.03 1.82-1.49 3.65-1.67 5.76-.02.99-.33 2.26.22 3.12m9.98-5.15c.16-.84-.11-1.7-.98-2.32-1.31-.87-2.64-.05-3.4 1.02-1.06 1.55-1.53 3.12-1.72 4.93-.02.85.28 3 1.08 3.96m-3.2-12.02c.3-.98-.08-2.83-1.21-2.99-.85-.02-1.42.11-2 .81-.43.41-3.06 4.46-2.55 7.16"/><path class="cls-3" d="M382.88 176.12s1.58-1.24 1.53 1.16"/><path class="cls-18" d="M376.03 68.41c6.29-.63 24.95 30.18 24.02 34.48-.93 4.31-16.05 15.55-21.31 16.43-3.62.6-14.31-13.95-14.31-13.95s-4.14-11.88-2.3-21.58c1.86-9.76 7.6-14.75 13.89-15.38Z"/><path class="cls-25" d="M395.69 178.67c.06-.1.12-.21.18-.31 7.2 6.98 6.21 24.62 5.75 32.8-.07 1.27-.13 2.28-.13 2.86 0 .94-.76 1.7-1.7 1.7s-1.7-.76-1.7-1.7c0-.67.06-1.72.13-3.05.39-6.97 1.36-24.09-4.57-30.04.76-.67 1.48-1.38 2.03-2.26Z"/><path class="cls-25" d="M387.35 176.41c-.85 0-1.41.14-1.98.85 0-1.35-.49-1.54-.92-1.45 2.04-.82 4.47-.79 7.36.11 1.58.49 2.92 1.34 4.06 2.44-.06.1-.12.21-.18.31-.55.88-1.27 1.59-2.03 2.26-.4-.4-.82-.75-1.29-1.04-.17-.4-.41-.76-.78-1.07-.76-.59-1.53-.47-2.17 0a11 11 0 0 0-.72-.12c0-.98-.45-2.17-1.35-2.28Z"/><path class="cls-8" d="M362.22 83.89s.89 13.88 4.65 19.99 9.87 14.1 9.87 14.1"/><path class="cls-23" d="M404.77 181.66s-.89 3.51-2.92 4.76c-2.02 1.25-5.37 3.77-7.44 1.73s.08-4.11 1.63-5.26c1.55-1.14 2.31-3.72 2.31-3.72s6.65-3.51 6.42 2.48Z"/><path class="cls-3" d="M398.36 179.18s-.76 2.57-2.31 3.72c-1.55 1.14-3.71 3.22-1.63 5.26s5.42-.48 7.44-1.73 2.92-4.76 2.92-4.76"/></svg>